<?xml version="1.0" encoding="utf-8"?>
<!-- Generator: Adobe Illustrator 28.1.0, SVG Export Plug-In . SVG Version: 6.00 Build 0)  -->
<svg version="1.1" id="Layer_1" xmlns="http://www.w3.org/2000/svg" xmlns:xlink="http://www.w3.org/1999/xlink" x="0px" y="0px"
	 viewBox="0 0 270 270" style="enable-background:new 0 0 270 270;" xml:space="preserve">
<style type="text/css">
	.st0{fill:none;stroke:#009ADD;stroke-width:3;stroke-linecap:round;stroke-linejoin:round;}
</style>
<g>
	<polyline class="st0" points="149.8,133 137.3,120.5 137.3,88.3 161.4,64.2 	"/>
	<polyline class="st0" points="125.1,132 125.1,85.6 139.8,71 139.8,60.9 120.5,60.9 120.5,67.7 	"/>
	<polyline class="st0" points="167.2,90.6 146.5,90.6 146.5,112.8 157,112.8 	"/>
	<polyline class="st0" points="102.3,62.6 112.1,80.4 112.1,121.2 93.8,139.4 93.8,154.2 	"/>
	<polyline class="st0" points="80,132.9 100.8,114.5 100.8,90.1 	"/>
	<circle class="st0" cx="120.5" cy="71.1" r="3.3"/>
	<circle class="st0" cx="100.9" cy="59.6" r="3.3"/>
	<circle class="st0" cx="100.9" cy="85.7" r="3.3"/>
	<circle class="st0" cx="77.8" cy="135.2" r="3.3"/>
	<circle class="st0" cx="93.9" cy="157.6" r="3.3"/>
	<circle class="st0" cx="125.1" cy="136.5" r="3.3"/>
	<circle class="st0" cx="152.1" cy="135.3" r="3.3"/>
	<circle class="st0" cx="160.6" cy="112.8" r="3.3"/>
	<circle class="st0" cx="171.5" cy="90.7" r="3.3"/>
	<circle class="st0" cx="164.6" cy="61" r="3.3"/>
	<path class="st0" d="M113.1,235.3"/>
	<circle class="st0" cx="93.9" cy="180.3" r="3.3"/>
	<path class="st0" d="M93.9,183.5v51.8H79.7c0,0,2.9-19.8,2.9-29c0-10.2-2.8-20-7.8-28.9c-5-8.9-12.5-15.8-18.4-24
		c-11.3-15.6-14.7-36.2-11-54.9c5.1-25.6,24.3-45.7,47.8-55.9c27.6-12,63-11.4,87,8c6.1,4.9,11.9,10.5,14.7,18
		c2.4,6.6,1.4,14.9,5.7,20.7c3.7,5.2,10.3,7.1,15.8,9.9c2.7,1.4,5.4,3.2,7.3,5.7c1.8,2.5,2.7,5.9,1.7,8.8c-1.4,3.9-6.2,4.9-7.8,8.8
		c-1.2,2.8-0.4,6,0.8,8.9c1.2,2.8,2.7,5.5,3.1,8.6c0.4,3.1-0.5,6.2-0.1,9.3c0.6,4.3,3.2,7.7,4.2,11.8c6.6,27.5-35.3,16.4-46,30.3
		c-3.4,4.5-3.8,10.5-3.2,16.1c0.9,9.3,1.8,18.5,2.6,27.8h-69.1"/>
	<circle class="st0" cx="109.5" cy="146.8" r="3.3"/>
	<polyline class="st0" points="109.5,150.1 109.5,185.3 109.5,185.3 93.9,201 	"/>
	<polyline class="st0" points="69.8,90.6 90.5,90.6 90.5,112.8 79.8,112.8 	"/>
	<path class="st0" d="M76.4,109.5c1.8,0,3.3,1.5,3.3,3.3s-1.5,3.3-3.3,3.3s-3.3-1.5-3.3-3.3S74.6,109.5,76.4,109.5z"/>
	<path class="st0" d="M65.4,87.4c1.8,0,3.3,1.5,3.3,3.3S67.3,94,65.4,94c-1.8,0-3.3-1.5-3.3-3.3S63.6,87.4,65.4,87.4z"/>
</g>
</svg>
